<?xml version="1.0" standalone="no"?>
<!DOCTYPE svg PUBLIC "-//W3C//DTD SVG 20010904//EN"
 "http://www.w3.org/TR/2001/REC-SVG-20010904/DTD/svg10.dtd">
<svg version="1.0" xmlns="http://www.w3.org/2000/svg"
 width="161.000000pt" height="213.000000pt" viewBox="0 0 161.000000 213.000000"
 preserveAspectRatio="xMidYMid meet">
<metadata>
Created by potrace 1.14, written by Peter Selinger 2001-2017
</metadata>
<g transform="translate(0.000000,213.000000) scale(0.100000,-0.100000)"
fill="#000000" stroke="none">
<path d="M770 2107 c-111 -33 -176 -73 -260 -157 -87 -86 -122 -147 -150 -256
-34 -134 -21 -277 38 -393 33 -65 55 -82 77 -60 14 14 12 23 -20 90 -50 106
-64 207 -42 313 22 108 58 176 133 256 130 138 317 192 499 145 245 -64 414
-318 375 -566 -37 -242 -230 -418 -480 -437 -82 -7 -85 -8 -85 -32 0 -24 3
-25 68 -28 176 -8 382 106 476 262 144 240 112 519 -82 710 -82 82 -158 126
-269 155 -99 27 -183 26 -278 -2z"/>
<path d="M1502 2118 c-5 -7 -11 -22 -13 -33 -3 -11 -15 -22 -29 -25 -37 -9
-35 -54 2 -58 21 -3 27 -9 30 -30 2 -21 8 -27 28 -27 20 0 26 6 28 27 3 21 9
27 30 30 37 4 39 49 3 58 -17 4 -27 15 -33 38 -9 33 -28 41 -46 20z"/>
<path d="M778 1981 c-162 -52 -282 -193 -310 -365 -14 -81 0 -172 36 -252 23
-51 26 -69 26 -180 l0 -124 -49 0 c-38 0 -56 -6 -80 -25 -16 -14 -33 -35 -36
-45 -5 -17 -12 -19 -44 -14 -43 7 -91 -13 -114 -46 -12 -18 -18 -19 -40 -9
-37 17 -89 3 -123 -32 -28 -29 -29 -34 -29 -127 0 -97 0 -97 25 -97 24 0 25 2
30 84 5 77 7 86 32 104 25 19 28 19 52 4 13 -9 26 -26 28 -38 2 -12 10 -27 20
-32 27 -17 48 9 48 59 0 36 5 47 26 60 24 16 27 16 52 -3 15 -11 29 -31 32
-44 4 -17 13 -24 30 -24 24 0 25 3 28 65 3 71 20 100 58 100 27 0 54 -25 54
-50 0 -25 33 -43 48 -28 8 8 12 78 12 228 0 241 5 263 57 268 60 6 63 -9 63
-304 0 -245 1 -262 19 -278 14 -13 28 -16 50 -11 23 5 35 1 50 -14 19 -19 21
-33 21 -179 0 -193 -10 -232 -86 -336 l-55 -76 -263 0 c-199 0 -266 3 -274 12
-23 28 -93 221 -100 275 -6 53 -9 58 -32 58 -22 0 -25 -5 -28 -43 -4 -51 15
-118 62 -226 34 -80 34 -80 15 -104 -27 -35 -27 -130 2 -166 l20 -26 319 0
c175 0 326 3 335 6 41 16 59 118 30 174 -15 29 -15 31 35 102 71 102 80 138
80 346 0 143 -3 179 -16 202 -20 33 -63 60 -98 60 l-26 0 0 116 c0 116 0 116
23 110 50 -15 155 -18 209 -7 235 49 397 279 359 509 -30 173 -149 312 -312
363 -78 24 -194 24 -271 0z m243 -57 c108 -32 199 -110 248 -213 23 -49 26
-68 26 -161 0 -96 -3 -110 -29 -165 -78 -159 -260 -250 -426 -214 l-65 14 0
80 0 80 35 0 c31 0 35 -3 40 -30 9 -51 70 -42 70 11 0 20 5 24 28 24 23 0 30
-6 37 -32 8 -26 15 -33 35 -33 21 0 26 5 28 32 2 22 12 39 33 54 59 42 75 114
39 181 l-20 37 21 36 c34 56 23 117 -30 167 -29 28 -41 48 -41 68 0 50 -54 50
-65 -1 -5 -24 -12 -29 -35 -29 -23 0 -29 5 -34 30 -3 17 -12 33 -21 36 -21 9
-45 -14 -45 -42 0 -22 -4 -24 -44 -24 -50 0 -76 -21 -59 -48 5 -10 22 -18 37
-20 l26 -3 0 -168 c0 -166 0 -169 -22 -175 -17 -4 -29 2 -46 24 -44 56 -131
61 -178 9 -17 -19 -19 -19 -25 -2 -17 41 -9 181 12 238 71 189 279 295 470
239z m27 -184 c31 -29 29 -73 -5 -100 -22 -17 -38 -20 -92 -18 l-66 3 -3 68
-3 67 74 0 c60 0 77 -4 95 -20z m2 -210 c24 -24 26 -57 4 -88 -13 -20 -24 -22
-95 -22 l-79 0 0 65 0 65 75 0 c62 0 79 -4 95 -20z m-304 -1395 c3 -14 3 -36
0 -50 l-6 -25 -303 2 -302 3 -3 33 c-6 65 -22 62 307 62 l301 0 6 -25z"/>
<path d="M82 1778 c-5 -7 -11 -22 -13 -32 -3 -12 -16 -23 -37 -28 -48 -13 -37
-58 14 -58 17 0 23 -7 26 -27 2 -22 8 -28 28 -28 20 0 26 6 28 27 3 21 9 27
30 30 37 4 39 49 2 58 -14 3 -26 14 -29 25 -4 22 -20 45 -31 45 -4 0 -12 -6
-18 -12z"/>
<path d="M1187 894 c-4 -4 -7 -18 -7 -30 0 -17 -7 -23 -27 -26 -38 -4 -40 -49
-3 -58 15 -4 26 -15 30 -30 4 -18 13 -25 30 -25 17 0 26 7 30 25 4 15 15 26
30 30 37 9 35 54 -2 58 -21 3 -27 9 -30 30 -3 26 -34 42 -51 26z"/>
</g>
</svg>
