<?xml version="1.0"?>
<svg xmlns="http://www.w3.org/2000/svg" xmlns:xlink="http://www.w3.org/1999/xlink" xmlns:svgjs="http://svgjs.com/svgjs" version="1.1" width="512" height="512" x="0" y="0" viewBox="0 0 512 512" style="enable-background:new 0 0 512 512" xml:space="preserve" class=""><g><g xmlns="http://www.w3.org/2000/svg"><path d="m91 0v46c0 24.814-20.186 45-45 45h-15v126.592c0 135.264 90.835 256.088 220.884 293.236l4.116 1.172 4.116-1.172c130.049-37.148 220.884-157.973 220.884-293.236v-126.592h-15c-24.814 0-45-20.186-45-45v-46zm330 217.592c0 101.821-64.219 194.004-159.8 229.38l-5.2 1.934-5.2-1.934c-95.581-35.376-159.8-127.559-159.8-229.38v-76.333l7.471-4.336c24.302-14.092 42.231-37.676 49.219-64.673l2.9-11.25h210.82l2.9 11.25c6.987 26.997 24.917 50.581 49.219 64.673l7.471 4.336z" fill="#000000" data-original="#000000" style="" class=""/><path d="m338.72 91h-165.44c-9.697 27.231-28.154 50.991-52.28 67.207v59.385c0 87.466 54.023 166.831 135 199.248 80.977-32.417 135-111.782 135-199.248v-59.385c-24.126-16.216-42.583-39.976-52.28-67.207zm-7.72 195c0 19.53-12.578 36.024-30 42.237v32.763h-30v-30h-30v30h-30v-30h-30v-30h30v-90h-30v-30h30v-30h30v30h30v-30h30v32.763c17.422 6.213 30 22.707 30 42.237 0 11.567-4.508 22.02-11.704 30 7.196 7.98 11.704 18.433 11.704 30z" fill="#000000" data-original="#000000" style="" class=""/><path d="m286 271h-45v30h45c8.276 0 15-6.724 15-15s-6.724-15-15-15z" fill="#000000" data-original="#000000" style="" class=""/><path d="m286 211h-45v30h45c8.276 0 15-6.724 15-15s-6.724-15-15-15z" fill="#000000" data-original="#000000" style="" class=""/></g></g></svg>
